<svg xmlns="http://www.w3.org/2000/svg" xml:space="preserve" width="800" height="800" fill="#f8bf01" viewBox="0 0 28.546 28.546"><path d="m9.207 11.596 1.297 1.111c.23-.264.469-.527.707-.789l-1.309-1.123.77-.9 1.342 1.15c.209-.219.414-.441.627-.662l-1.305-1.117.77-.9 1.369 1.178c.273-.273.551-.539.828-.805l-1.354-1.163.771-.898 1.451 1.246c.248-.225.496-.449.748-.672l-1.504-1.289.77-.902 1.648 1.42c2.883-2.4 6.064-4.459 9.471-5.756C25.203.271 23.451 0 21.371 0 16.453 0 9.736 1.504 5.625 5.619-.34 11.59-.816 23.043.824 26.529c0 0 3.34-6.354 8.904-12.924l-1.293-1.111.772-.898z"/><path d="M27.535 1.678c-.004.002-4.064 1.555-9.396 5.92l.789.676-.77.898-.938-.803c-.252.211-.504.434-.76.66l1 .857-.768.902-1.113-.957c-.279.258-.559.52-.84.793l1.107.951-.77.896-1.18-1.01c-.213.215-.424.434-.637.656l1.154.988-.771.898-1.193-1.021a51.39 51.39 0 0 0-.713.783l1.211 1.039-.77.898-1.213-1.041c-2.975 3.496-5.979 7.828-8.654 13.182 1.102.441 2.816.703 4.857.703 4.92 0 11.641-1.504 15.752-5.619 6.182-6.185 6.471-18.257 4.616-21.249z"/></svg>