<?xml version="1.0" standalone="no"?>
<!DOCTYPE svg PUBLIC "-//W3C//DTD SVG 20010904//EN"
 "http://www.w3.org/TR/2001/REC-SVG-20010904/DTD/svg10.dtd">
<svg version="1.0"
  xmlns="http://www.w3.org/2000/svg" width="700.000000pt" height="700.000000pt" viewBox="0 0 700.000000 700.000000" preserveAspectRatio="xMidYMid meet">
  <metadata>
Created by potrace 1.14, written by Peter Selinger 2001-2017
  </metadata>
  <g transform="translate(0.000000,700.000000) scale(0.100000,-0.100000)" fill="#f8bf01" stroke="none">
    <path d="M4958 6995 c-1 -1 -57 -6 -123 -9 -66 -4 -133 -9 -150 -10 -16 -2
-61 -7 -100 -10 -38 -4 -83 -9 -100 -11 -16 -3 -52 -7 -80 -10 -27 -3 -61 -8
-75 -10 -14 -3 -41 -7 -60 -9 -67 -9 -116 -17 -250 -42 -74 -14 -146 -28 -160
-30 -14 -3 -33 -7 -42 -10 -10 -3 -30 -8 -45 -10 -56 -10 -272 -66 -418 -109
-353 -103 -776 -273 -1025 -412 -36 -20 -65 -35 -65 -33 0 3 -20 -9 -45 -26
-25 -17 -61 -39 -80 -49 -28 -14 -151 -94 -309 -200 -16 -11 -16 -11 -129 -99
-555 -431 -974 -1032 -1288 -1846 -20 -52 -40 -111 -46 -130 -5 -19 -13 -44
-18 -55 -24 -54 -143 -465 -153 -532 -3 -17 -8 -36 -11 -41 -3 -4 -7 -19 -9
-33 -3 -13 -13 -60 -22 -104 -9 -44 -19 -91 -21 -105 -3 -14 -7 -32 -9 -40 -2
-8 -6 -28 -9 -45 -3 -16 -12 -70 -20 -120 -8 -49 -18 -110 -21 -135 -3 -25 -8
-52 -10 -60 -2 -8 -7 -46 -11 -85 -3 -38 -8 -79 -10 -90 -2 -11 -7 -55 -10
-99 -3 -44 -8 -91 -9 -105 -18 -145 -25 -647 -12 -859 12 -196 36 -381 68
-532 11 -52 22 -104 24 -115 10 -46 77 -244 89 -260 11 -15 13 -14 26 12 140
278 683 1156 965 1558 23 33 95 137 161 230 65 94 122 175 126 180 5 6 88 118
187 250 167 225 279 373 291 385 3 3 50 61 104 130 55 69 151 187 215 264
l115 139 -40 36 c-22 20 -53 47 -69 61 -66 55 -160 136 -182 157 l-24 21 33
39 c18 21 48 54 66 73 18 19 42 50 55 67 12 18 26 33 31 33 10 0 70 -49 212
-172 56 -49 104 -88 108 -88 4 0 24 19 44 42 20 23 56 62 80 87 23 25 42 50
42 56 0 6 -51 54 -112 107 -62 52 -132 112 -155 133 l-43 37 29 37 c17 20 42
50 57 66 14 17 42 49 61 73 20 23 38 42 42 42 3 0 25 -17 47 -38 23 -20 52
-46 65 -57 13 -11 67 -57 120 -102 l96 -83 73 79 c39 44 72 82 73 84 1 3 -65
62 -148 133 -156 133 -169 145 -157 154 4 3 32 34 62 70 30 36 67 79 82 95 16
17 28 34 28 38 0 11 26 -8 101 -73 205 -179 235 -203 245 -200 12 3 194 178
194 186 0 8 -26 30 -192 171 -70 60 -127 111 -128 115 0 7 94 119 155 186 l31
33 79 -67 c44 -38 82 -70 85 -74 3 -3 34 -30 70 -60 36 -30 76 -65 90 -77 14
-13 27 -23 30 -23 3 0 41 34 85 75 44 41 83 74 88 75 20 1 -5 26 -139 140 -81
69 -163 139 -182 156 l-36 32 94 111 93 112 26 -24 c39 -36 310 -268 350 -300
19 -15 37 -24 40 -20 3 5 35 32 71 61 82 67 82 67 160 127 36 28 67 52 70 55
3 3 41 33 85 66 523 395 1113 749 1598 961 134 58 158 68 245 104 l84 33 -84
29 c-90 30 -256 72 -328 82 -25 3 -53 8 -62 11 -9 3 -32 7 -50 8 -18 2 -54 7
-80 10 -109 14 -145 18 -188 22 -55 5 -697 14 -702 9z"/>
    <path d="M6630 6536 c-117 -53 -388 -187 -470 -234 -341 -192 -491 -283 -759
-460 -97 -64 -361 -247 -396 -274 -19 -15 -83 -63 -111 -83 -91 -65 -320 -245
-417 -326 l-28 -24 82 -70 c45 -38 89 -75 97 -81 13 -10 -34 -73 -167 -226 -4
-4 -59 37 -122 91 l-115 98 -30 -24 c-16 -14 -58 -50 -93 -81 l-63 -56 34 -30
c19 -17 59 -51 88 -76 29 -25 69 -59 88 -76 l34 -30 -23 -26 c-13 -15 -42 -48
-64 -74 -22 -26 -54 -64 -71 -83 l-32 -35 -63 54 c-35 30 -96 83 -135 117
l-70 62 -28 -24 c-16 -13 -63 -57 -105 -97 l-76 -74 132 -113 c73 -63 133
-118 133 -122 0 -4 -12 -21 -26 -36 -14 -15 -55 -63 -91 -105 l-66 -77 -91 77
c-50 42 -93 80 -96 83 -3 3 -27 25 -53 48 l-49 42 -78 -82 -78 -82 49 -41 c27
-23 89 -75 138 -116 50 -41 90 -78 90 -82 1 -4 -5 -13 -12 -20 -6 -7 -32 -38
-57 -68 -24 -30 -61 -72 -81 -94 l-37 -38 -141 121 c-77 66 -143 121 -146 121
-7 0 -122 -121 -155 -163 l-20 -25 58 -48 c31 -27 71 -61 87 -75 17 -15 55
-48 85 -74 30 -27 56 -51 58 -55 1 -4 -30 -44 -70 -91 -40 -46 -81 -94 -92
-106 -22 -26 -15 -29 -128 69 -86 74 -139 120 -165 142 -21 17 -22 17 -41 -1
-25 -24 -221 -264 -358 -438 -617 -785 -1153 -1623 -1649 -2579 -77 -149 -95
-190 -84 -197 37 -23 284 -89 409 -109 41 -7 82 -14 90 -15 14 -3 83 -11 163
-20 230 -27 824 -27 1067 0 19 2 64 6 100 9 83 8 138 14 225 27 39 6 88 12
110 15 22 3 51 7 65 10 14 3 43 8 65 10 22 3 56 9 75 14 19 5 52 11 72 14 21
3 81 15 134 27 53 11 104 22 113 24 214 43 706 198 931 293 758 321 1268 687
1683 1207 231 289 444 650 602 1020 26 61 53 124 60 140 20 47 128 348 140
395 3 8 21 69 41 135 19 66 37 127 39 135 2 8 22 89 44 180 71 289 134 669
156 940 3 36 8 79 10 95 25 172 25 804 0 1030 -16 140 -42 313 -55 365 -5 19
-11 46 -13 60 -20 113 -125 396 -153 412 -5 3 -61 -18 -124 -46z"/>
  </g>
</svg>
