<?xml version="1.0" encoding="UTF-8"?>
<svg id="yellow" xmlns="http://www.w3.org/2000/svg" viewBox="0 0 928.92 743.26">
  <defs>
    <style>
      .cls-1 {
        fill: #f8bf01;
      }
    </style>
  </defs>
  <path class="cls-1" d="m928.92,379.26c-.57,3.59-1.16,7.18-1.71,10.78-4.46,29.46-16.58,55.6-34.34,79.3-22.19,29.61-50.01,52.94-81.13,72.52-46.02,28.95-95.94,48.68-148.33,62.65-20.25,5.4-40.69,9.87-61.32,13.48-12.44,2.18-25.02,3.59-37.54,5.35-20.95,2.95-42.02,4.7-63.13,5.43-19.31.67-38.66.8-57.97.35-18.47-.43-36.97-1.29-55.35-3.08-18.02-1.75-35.88-5.04-53.84-7.4-18.15-2.38-36-6.22-53.79-10.44-49.6-11.76-97.19-28.88-141.9-53.54-31.98-17.64-61.36-38.79-86.38-65.6-20.71-22.2-36.76-47.29-45.63-76.53-5.6-18.48-7.7-37.35-6.01-56.72,3.04-34.66,17-64.66,38-91.82,21.15-27.36,47.29-49.08,76.3-67.56,37.84-24.11,78.53-41.98,121.25-55.47,19.83-6.26,39.85-11.83,60.16-16.2,14.12-3.04,28.43-5.25,42.71-7.47,13.63-2.11,27.32-3.89,41.02-5.55,9.07-1.1,18.19-2.02,27.32-2.5,18.44-.96,36.9-1.88,55.36-2.21,11.63-.21,23.28.77,34.93,1.06,25.65.65,51.11,3.17,76.5,6.81,18.43,2.64,36.82,5.42,55.06,9.21,19.22,3.99,38.2,8.91,56.94,14.7,22.73,7.03,45.06,15.16,66.8,24.87,39.16,17.49,75.62,39.29,107.51,68.19,21.03,19.06,38.69,40.82,51.42,66.36,8.69,17.44,14.33,35.77,16.17,55.23.12,1.29.61,2.54.92,3.81v22ZM463.53,121.75c-21.01.15-41.96.95-62.82,3.45-13.71,1.64-27.45,3.15-41.05,5.41-18.69,3.11-37.14,7.41-55.43,12.45-48.67,13.41-94.45,33.08-136.02,62-28.03,19.5-52.25,42.81-70.98,71.59-15.62,24-25.49,50.08-27.91,78.66-1.7,20.08.45,39.9,6.43,59.21,10.19,32.9,28.87,60.54,53.1,84.58,22.15,21.97,47.4,39.86,74.77,54.71,36.3,19.69,74.69,33.98,114.79,43.78,23.93,5.85,48.13,10,72.58,13,22.34,2.74,44.75,4.04,67.21,4.48,12.97.26,25.96-.41,38.93-.87,6.98-.25,13.98-.65,20.91-1.46,14.03-1.65,28.04-3.52,42.03-5.49,19.6-2.77,39.04-6.4,58.17-11.56,26.37-7.1,52.09-16.01,77.05-27.16,30.88-13.79,59.73-30.88,85.83-52.43,26.13-21.57,47.79-46.86,62.52-77.59,17.86-37.28,21.14-75.91,9.45-115.61-8.74-29.67-24.99-55.06-45.92-77.51-22.8-24.46-49.36-44.13-78.51-60.39-28.01-15.62-57.48-27.81-88.08-37.29-24.95-7.74-50.34-13.55-76.16-17.68-18.58-2.98-37.23-5.22-55.97-6.54-14.94-1.06-29.95-1.18-44.93-1.72Z"/>
  <path class="cls-1" d="m475.92,743.26c-3.52-.9-7.06-1.75-10.56-2.71-18.32-5.06-30-19.21-31.66-39.08-.93-11.15.5-21.61,6.4-31.11,6.73-10.83,15.87-18.98,28.75-21.44,5.31-1.01,10.95-.73,16.4-.46,9.62.47,19.22,1.39,29.53,2.17.03,4.22.08,8.47.09,12.72.02,4.11,0,8.22-.84,12.66-1.53-2.48-3.21-4.88-4.56-7.46-3.85-7.37-10.2-10.85-18.17-11.24-3.91-.19-8.05.17-11.79,1.27-5.25,1.55-9.24,5.1-11.75,10.17-3,6.05-4.79,12.33-5.06,19.13-.45,11.11.23,21.96,5.4,32.11,3.72,7.32,9.19,12.19,17.72,12.73,1.57.1,3.17-.36,4.57-.54,2.09-3.93,1.1-7.65,1.12-11.23.02-4.15-.46-8.31-.49-12.46-.04-5.88-.13-11.69-5.4-16.78h36.34c-4.1,6.29-3.22,13.17-3.15,19.91.08,7.81.32,15.61.51,24.09-4.09,1.13-8.46,2.51-12.92,3.52-5.35,1.21-10.77,2.08-16.15,3.13-1.12.22-2.21.6-3.32.91h-11Z"/>
  <path class="cls-1" d="m14.82,130.06c10.62-6.77,20.11-12.83,29.86-19.05,1.75,1.14,3.35,1.98,4.71,3.1,8.23,6.76,16.4,13.61,24.62,20.38,2.02,1.67,4.18,3.17,6.73,4.5-2.14-15.01-6.81-29.33-9.77-44.66,9.59-6.12,19.36-12.35,29.86-19.05-.81,9.37,4.92,15.26,9.33,21.71,9.47,13.89,19.16,27.62,28.63,41.51,2.6,3.81,5.47,7.09,10.49,8.51-2.42,3.84-6.47,4.88-9.55,7.13-3.08,2.26-6.43,4.15-9.67,6.18-3.35,2.1-6.72,4.17-10.58,6.56-.31-1.32-.61-2.04-.62-2.75-.06-4.17-1.75-7.76-4.01-11.1-7.36-10.9-14.76-21.77-22.19-32.61-.77-1.12-1.91-1.99-2.89-2.97-.36.17-.73.35-1.09.52.29,2.22.35,4.49.89,6.65,3.94,15.79,8,31.55,11.97,47.33.44,1.74.57,3.57.91,5.83-2.93,1.93-5.79,3.83-8.95,5.91-8.16-6.33-16.11-12.59-24.17-18.7-8.02-6.09-15.68-12.68-24.66-18.73-.39,3.08.83,4.72,1.78,6.27,7.14,11.63,14.24,23.28,21.7,34.7,1.82,2.78,4.93,4.71,7.87,7.43-4.85,3.12-9.93,6.39-15.59,10.04-.21-1.44-.45-2.31-.44-3.17.04-3.66-1.53-6.76-3.3-9.79-9.84-16.79-19.75-33.54-29.53-50.37-2.71-4.67-5.56-9.06-12.36-11.31Z"/>
  <path class="cls-1" d="m588.86,681.63c2.38.53,4.76,1.03,7.13,1.58,11.12,2.59,17.36,9.98,18.08,21.44.78,12.31-4.71,21.15-16.05,26.02-7.25,3.11-14.79,4.95-22.66,5.49-12.75.88-25.5,1.83-38.25,2.71-.6.04-1.23-.31-2.47-.65,5.06-7.57,2.84-15.44,1.84-23.29-.63-4.94-.91-9.92-1.41-14.88-1.17-11.73-2.12-23.48-3.68-35.16-.69-5.18-2.64-10.19-4.16-15.82,2.81-.56,5.81-1.28,8.84-1.75,12.96-2.02,25.9-4.23,38.91-5.83,5.21-.64,10.72-.59,15.87.38,10.09,1.9,14.86,9.97,12.78,20.04-1.4,6.77-5.31,11.68-10.97,15.4-1.46.96-2.84,2.03-4.25,3.04.16.42.32.85.47,1.27Zm-26.83,9.7c.79,8.06,1.5,15.48,2.26,22.88.2,1.98.53,3.95.85,5.92.13.82.34,1.63.59,2.42,1.18,3.58,3.37,5.19,7.1,4.83,4.93-.48,8.8-2.82,11.19-7.27,4.47-8.34,3.32-16.35-1.78-23.95-1.71-2.54-4.24-4.48-7.33-4.74-4.08-.34-8.21-.08-12.88-.08Zm-1.19-10.72c11.35,1.49,17.79-4.76,17.25-16.06-.51-10.49-10.75-15.66-20.06-9.72.93,8.52,1.88,17.22,2.81,25.77Z"/>
  <path class="cls-1" d="m182.48,43.06c15.74-5.06,30.41-9.89,45.16-14.47,10.36-3.22,20.82-3.95,31.44-.75,11.79,3.56,20.29,10.68,24.44,22.33,5.27,14.8,5.68,29.4-3.53,43.03-5.14,7.61-12.19,13.11-20.25,17.43-11.57,6.19-24.09,9.53-36.73,12.53-5.45,1.29-10.96,2.33-16.27,3.45-.44-.67-.82-.99-.76-1.18,1.72-5.51.55-10.75-.94-16.13-4.88-17.61-9.56-35.29-14.22-52.96-1.33-5.05-2.83-9.92-8.34-13.28Zm53.03,65.67c10,1.96,13.57-.93,17.01-6.17,2.41-3.68,4.17-8.03,5.18-12.33,2.79-11.82.47-23.24-4.73-33.93-4.31-8.87-11.1-15.4-21.22-17.43-4.67-.94-9.22-.58-13.23,2.25-1.22,3.65-.06,6.84.79,10.02,4.53,17.02,9.07,34.03,13.69,51.02.64,2.34,1.73,4.55,2.51,6.57Z"/>
  <path class="cls-1" d="m279.3,685.72c-2.67,6.75-2.83,13.28-4.15,19.52-1.35,6.36-1.6,12.83.47,19.88-6.4-.21-11.99-1.58-17.6-2.47-5.67-.9-11.44-1.46-17.64-3.37,6.05-5.99,7-13.14,7.97-20.47,1.33-10.05,3.35-20,5.01-30.01,1.47-8.86,3.08-17.7,4.15-26.61.42-3.51-.48-7.18-.81-11.15,3.86-.8,7.92.25,11.94.66,9.93,1.02,19.83,2.29,29.72,3.57,7.11.92,14.06,2.44,20.54,5.76,12.48,6.4,15.1,20.3,5.78,30.86-3.32,3.75-7.39,6.12-12.17,7.41-1.74.47-3.48.95-5.66,1.54,7.31,18.08,13.65,36.1,24.85,52.37-1.21.37-2.06.83-2.93.85-6.55.18-12.98-.74-19.07-3.11-8.32-3.24-14.05-9.27-17.63-17.42-3.55-8.07-7.16-16.12-10.77-24.16-.46-1.02-1.06-1.98-1.98-3.67Zm1.58-10.56c13.52,4.22,19.78-2.53,21.27-10.87.38-2.11.87-4.24.9-6.37.15-9.86-5.85-15.13-16.42-14.14-.49.88-1.52,1.94-1.68,3.12-1.26,9.47-4.14,18.74-4.07,28.27Z"/>
  <path class="cls-1" d="m562.49,89.79c-4.19,2.42-8.08,1.48-11.79,1.24-3.96-.26-7.86-1.25-11.82-1.66-7.53-.77-13.05-4.79-17.2-10.74-5.14-7.36-9.96-14.94-14.98-22.39-1.05-1.55-2.35-2.93-3.96-4.18-1.88,11.93-4.72,23.61.26,35.75-12.55.61-24.39-.49-36.72-1.56.74-1.28,1.16-2.13,1.69-2.91,2.3-3.4,3.48-7.2,3.67-11.25.8-16.77,1.53-33.54,2.25-50.32.14-3.16.11-6.32.17-9.49.08-4.03-.07-8.01-3.46-11.75,1.84-.24,3.03-.53,4.23-.52,16.31.09,32.63.15,48.94.38,6.39.09,12.5,1.73,18.21,4.57,8.44,4.19,11.69,13.12,8.28,21.94-2.59,6.7-7.64,10.71-14.05,13.32-1.83.74-3.71,1.37-6.09,2.25,9.89,16.43,18.76,33.12,32.37,47.34Zm-59.37-79.87c.32,10.16-1.71,20.12-1.06,30.2,3.64,0,6.81.34,9.87-.08,4.11-.57,7.63-2.71,9.55-6.48,2.83-5.56,3.21-11.49.97-17.35-1.37-3.6-4.2-6.02-7.97-6.87-3.55-.81-7.2-1.31-11.36.58Z"/>
  <path class="cls-1" d="m623.64,93.73c1.1-6.23,2.19-12.26,3.23-18.29.42-2.45.99-4.92,1-7.39.02-4.1-.36-8.19-.59-12.86,11.53,1.08,23.1,3.66,34.68,5.47.08.7.26,1.15.13,1.29-5.47,5.46-6.25,12.59-7.19,19.72-.87,6.58-2,13.13-3.09,20.23-2.14.42-4.36,1.19-6.6,1.23-8.66.16-17.36.67-25.97-.03-13.66-1.12-26.6-4.97-36.88-14.64-15.49-14.57-17.16-41.06-3.73-58.5,12.73-16.54,29.8-21.49,49.76-17.52,6,1.2,11.79,3.4,17.73,4.96,5.09,1.34,10.26,2.41,15.92,3.72-.63,7.88-2.12,16.02-3.9,24.12-.37.04-.75.07-1.12.11-.93-2.07-2.07-4.07-2.74-6.22-3.21-10.31-10.75-15.23-20.88-16.78-15.58-2.39-24.35,5.06-29.09,17.03-5.04,12.71-6.14,25.79-2.33,39.09,2.5,8.71,11.19,15.83,21.67,15.28Z"/>
  <path class="cls-1" d="m376.59,647.02c-6.62,6.72-5.58,14.77-6.21,22.21-.99,11.76-1.26,23.58-1.54,35.39-.08,3.43.38,7.04,1.43,10.29.83,2.55,2.51,5.21,4.57,6.92,8.21,6.81,24.08,4.21,29.65-4.87,1.69-2.75,2.94-6.1,3.27-9.29,1.31-12.91,2.05-25.87,3.28-38.79.55-5.7.18-11.25-.92-16.82-.15-.76-.02-1.58-.02-3.09,5.48.42,10.71.82,16.33,1.25-1.29,2.9-2.93,5.3-3.39,7.91-1.02,5.87-1.51,11.83-2.12,17.77-1.28,12.4-2.17,24.86-3.82,37.21-1.87,13.96-13.19,25.46-30.25,27.11-8.52.82-16.94-.35-25.06-3.08-13-4.38-20.39-14.9-20.88-28.63-.53-15.03,1.63-29.89,2.39-44.84.27-5.34.64-10.63-1.2-15.81-.3-.85-.04-1.91-.04-3.3,11.38-.63,22.49.2,34.53,2.47Z"/>
  <path class="cls-1" d="m379.69,91.09c-8.34.52-15.58.98-23.73,1.49,1.27-1.62,1.88-2.52,2.6-3.31,3.45-3.79,5.39-8.4,6.91-13.17,5.89-18.51,11.58-37.09,17.57-55.57,1.91-5.88,2.29-11.37-1.8-16.61,13.86-2.44,29.46-3,33.8-1.13,3.76,7.25,7.69,14.76,11.55,22.3,7.51,14.65,14.87,29.37,22.55,43.92,2.23,4.23,5.32,8.02,8.08,11.97.93,1.34,2.07,2.53,3.17,3.86-2.98,1.49-24.45,3.37-33.41,3.1-4.03-8.63-8.19-17.08-11.95-25.7-3.42-7.84-7.13-10.04-15.61-8.68-2.95.47-5.95.55-8.93.84-2.12.21-4.24.48-6.31.71-.69,1.37-1.36,2.34-1.69,3.41-1.75,5.71-3.49,11.43-5.1,17.18-1.45,5.16-3.1,10.4,2.3,15.38Zm7.27-47.3c6.04,2.22,13.81,1.55,17.71-1.48-3.38-6.67-5.92-13.81-11-21.08-2.45,8.25-4.58,15.42-6.71,22.56Z"/>
  <path class="cls-1" d="m717.97,34.74c-1.35,13.48,1.71,26.31,3.39,39.87,1.21-.62,2.32-.91,3.03-1.6,4.31-4.17,8.55-8.41,12.77-12.67,3.34-3.38,4.64-7.61,4.7-12.26.02-1.79-.14-3.58-.25-6,9.19,2.8,17.95,5.47,27.68,8.44-2.22,1.56-3.6,2.42-4.86,3.44-5.95,4.79-11.95,9.52-17.77,14.46-3.54,3.01-6.76,6.41-10.18,9.57-5.34,4.93-9.64,10.68-12.37,17.37-2.32,5.68-4.43,11.53-5.71,17.5-.88,4.08-.17,8.5-.17,13.4-11.57-3.5-22.78-6.89-34.12-10.32.18-.6.17-1.19.46-1.44,4.36-3.78,6.3-8.89,7.89-14.2.95-3.18,1.82-6.4,2.98-9.51,2.36-6.38,1.83-12.8.35-19.17-2.62-11.33-5.3-22.65-8.3-33.88-1.18-4.42-3.27-8.6-5.3-13.78,12.2,3.68,23.7,7.14,35.79,10.79Z"/>
  <path class="cls-1" d="m680.98,718.18c-11.31,2.41-22.12,4.72-33.94,6.57,3.46-8.22,1.31-15.45-.25-22.72-.45-2.11-.8-4.24-1.13-6.37-.9-5.73-3.35-10.77-6.87-15.32-4.28-5.53-8.72-10.94-12.9-16.54-5.72-7.66-12.62-14.17-19.68-20.52-.72-.65-1.72-.99-2.59-1.48l.66-1.38c11.13-2.14,22.25-4.28,33.61-6.47,7.01,12.1,13.94,23.77,22.48,35.25.81-1.59,1.37-2.35,1.61-3.21,1.38-4.79,2.51-9.66,4.04-14.4,2.23-6.86.71-13.11-2.57-19.18-.47-.86-.96-1.72-1.67-2.99,8.91-1.7,17.5-3.35,26.73-5.11-.59,1.77-.82,3.03-1.39,4.11-6.05,11.44-8.93,23.93-12.21,36.3-.38,1.44-.69,2.91-1.09,4.35-4.6,16.63-1.35,32.19,6.34,47.17.22.44.39.9.83,1.96Z"/>
  <path class="cls-1" d="m780.78,141.93c13.53,8.68,21.77,9.9,39.72,5.72-4.83,5.82-9.08,10.95-13.73,16.56-20.31-9.52-40.53-19-60.69-28.45.16-.62.15-1.1.32-1.19,5.02-2.51,8-6.67,10.31-11.67,7.88-17.04,15.96-33.99,24.02-50.96,2.15-4.54,3.71-9.19,3.04-15.09,11.38,5.32,22,10.28,33.21,15.51-1.18,1.02-2.05,1.63-2.73,2.41-1.85,2.1-4.17,4.01-5.34,6.46-9.19,19.18-18.15,38.46-27.16,57.72-.41.87-.6,1.84-.97,3Z"/>
  <path class="cls-1" d="m848.34,181.78c10.99,8.87,21.73,15.93,36.27,13.71-4.54,4.76-9.45,8.71-14.74,12.71-18.27-13.21-36.28-26.23-54.92-39.72,1.6-.62,2.41-1.04,3.28-1.24,3.83-.9,6.38-3.54,8.55-6.52,11.86-16.26,23.64-32.58,35.48-48.86,2.67-3.67,5.02-7.45,4.97-12.23,3.41.83,23.2,14.58,29.66,20.61-7.9,3.07-11.73,10.01-16.27,16.28-9.66,13.33-19.38,26.63-29.04,39.96-1.13,1.57-2.03,3.31-3.23,5.28Z"/>
  <path class="cls-1" d="m161.16,145.52c.96-5.94-.68-10.61-2.56-15.2-7.04-17.21-14.02-34.45-21.25-51.59-1.98-4.7-4.79-9.05-7.51-14.11,9.92-4.48,19.98-8.88,31.03-12.48-.69,9.99,4.23,17.96,7.58,26.36,5.96,14.96,12.15,29.84,18.54,44.63,1.39,3.21,4.02,5.88,6.42,9.29-9.74,4.95-20.61,8.65-32.25,13.09Z"/>
  <path class="cls-1" d="m359.34,224.62c2.88-1,5.94-2.07,9.34-3.26.96.46,2.3.83,3.29,1.63,1.85,1.51,2.37,3.64,1.6,5.87-.71,2.05-2.3,3.3-4.52,3.35-3.5.08-7-.02-10.49.01-5.67.05-7.85,1.4-9.49,6.89-3.29,11.06-10.28,19.21-19.35,25.91-7.5,5.54-14.93,11.17-22.36,16.82-1.58,1.2-2.98,2.61-4.12,3.62-1.09,2.92.14,4.62,1.72,6.26,1.97,2.04,3.95,4.06,5.78,6.22,5.71,6.77,5.34,15.67-5.32,19.09-11.01,3.53-21.27,8.63-30.97,14.82-3.14,2-6.1,4.72-8.26,7.74-3.15,4.4-1.51,9.33,3.61,12.72.74-1.44,1.47-2.86,2.31-4.48,8.11,4.3,14.47,10.29,20.14,17.06,6.58,7.84,11.85,16.44,15,26.27,3.38,10.52,3.07,21.02-.82,31.24-5.43,14.27-13.86,26.49-26.09,35.9-5.04,3.88-10.34,6.73-16.29,5.19-5.74,2.17-10.76,4.38-15.97,5.96-7.99,2.42-14.98-.09-20.29-6.13-3.92-4.47-6.97-9.71-10.27-14.71-.66-.99-.65-2.42-.93-3.54,2.25-1.67,3.83-.78,5.31.39,2.09,1.65,4.11,3.39,6.18,5.07,9.27,7.5,17.33,7.53,26.66.3,8.23-6.39,15.66-13.55,20.79-22.69,13.16-23.43,12.54-46.65-1.61-69.49-.57-.93-1.49-1.64-2.96-3.22,0,2.52-.17,4.1.03,5.64,2.04,15.72-2.57,30.32-7.57,44.83-1.85,5.38-5.56,9.57-10.45,12.36-10.41,5.94-21.36,9.11-33.47,5.74-6.43-1.79-9.87.46-11.24,6.93-.27,1.29-.18,2.66-.42,3.96-.91,5.02-4.65,7.65-9.76,6.71-13.97-2.57-26.74-8.27-38.25-16.34-7.6-5.32-14.42-11.77-21.35-17.99-3.6-3.23-6.33-7.26-7.48-11.98.6-2.26,2.04-3.12,4.09-3.21,4.32-.19,8.63-.41,12.94-.6,3.33-.15,6.7.03,9.97-.45,6.62-.97,8.63-5.74,4.66-11.08-6-8.05-8.93-17.05-8.75-27.02.11-6.14.15-12.33.95-18.41,1.37-10.5,7.02-18.93,14.31-26.27,4.54-4.57,14.06-5.88,19.96-2.77-1.2,1.57-2.19,3.21-3.5,4.54-5.9,6-6.74,9.32-3.41,16.96,5.16,11.87,12.43,22.38,21.23,31.85.34.37.71.7,1.08,1.04,7.08,6.61,11.2,6.91,18.78.92,6.66-5.27,13.12-10.79,19.68-16.19,2.95-2.43,3.88-5.34,3.46-9.25-.6-5.61-.56-11.3-.5-16.95.02-1.66,1.04-3.31,1.91-5.88,2.45,4.42,4.4,7.93,5.95,10.73,3.56,1.61,5.9.83,7.93-.8,7.66-6.14,15.28-12.35,22.87-18.58,2.37-1.94,2.74-4.86,3.28-7.62.68-3.43,1.2-6.88,1.84-10.32,1.22-6.54,4.47-11.74,10.13-15.39,6.16-3.96,12.52-7.67,18.31-12.11,4.85-3.71,9.34-8.03,13.4-12.6,4.94-5.56,7.09-12.3,6.36-19.89-.35-3.64-.08-7.34-.42-10.97-.57-6.09,1.73-11.16,5.47-15.57,3.1-3.66,6.3-7.51,10.2-10.17,9.03-6.16,18.51-11.65,28.17-17.64.81,3.4-.74,5.15-2.11,7-6.53,8.83-13.07,17.66-19.53,26.55-1.46,2.01-2.74,4.19-3.87,6.41-2.4,4.75-1.51,8.67,3.45,13.11Zm-109.75,138.02c-2.29,1.41-4,2.27-5.51,3.42-11.62,8.83-24.16,15.16-39.19,15.47-5.18.11-9.59,2.08-12.56,6.86-1.98,3.18-5.32,4.94-8.89,6.08-1.27.4-2.59.67-3.79,1.22-1.84.86-3.06,2.09-1.26,4.63,11.22-1.04,21.63,2.8,32.23,6.37,5.38,1.81,11.43,2.11,17.19,2.19,6.98.1,13.16-2.54,16.99-8.75,7.06-11.45,6.81-23.9,4.79-37.49Zm-56.45,11.58c-.4-.65-.57-1.17-.92-1.48-6.34-5.65-9.86-12.87-11.67-21.02-1.01-4.54-1.88-9.1-2.92-13.63-.18-.78-.9-1.44-1.7-2.65-.75,1.46-1.39,2.26-1.58,3.16-2.86,13.24-1.5,26.11,3.51,38.64.86,2.15,2.44,3.54,5.11,3.91,4.12-.96,8.48-1.98,10.18-6.93Z"/>
  <path class="cls-1" d="m409.93,208.09c1.5-2.75,3.81-3.31,6.08-3.77,14.97-3.05,29.94-6.1,44.93-9.04,16.15-3.17,32.29-6.37,48.48-9.29,9.8-1.77,19.66-3.35,29.56-4.41,7.18-.77,14.2,1.07,20.96,3.55,12.17,4.48,23.01,11.22,32.82,19.64,1.33,1.14,2.26,2.76,3.24,3.99-2.13,4.58-2.67,4.84-8.89,4.34-5.4-5.22-11.91-8.51-20.02-7.38-.8,3.17,1.06,4.21,2.85,5.02,3.02,1.37,6.08,2.8,9.27,3.67,17.56,4.78,34.13,12.12,50.63,19.6,12.27,5.57,24.45,11.35,36.48,17.4,12.57,6.31,23.68,14.84,34.35,23.92,24.48,20.84,48.84,41.81,73.4,62.56,5.97,5.04,12.52,9.38,18.77,14.08,2.27,1.7,4.31,3.61,4.61,6.87-4.17.87-8.02.31-11.92-.83-26.38-7.73-49.9-20.91-71.81-37.29-21.6-16.15-43.15-32.39-65.13-48.01-19.27-13.7-39.56-25.84-60.65-36.63-19.53-10-40.11-16.89-61.46-21.6-17.4-3.84-34.98-6.55-52.8-7.34-10.13-.45-20.31-1.01-30.42-.59-8.27.35-16.49,2.06-24.72,3.22-2.97.42-5.92,1-8.61-1.67Z"/>
  <path class="cls-1" d="m286.63,469.16c1.37-2.28,2.3-4.42,3.75-6.12,8.55-10.1,18.24-18.92,29.53-25.92,10.88-6.75,22.54-10.1,35.5-9.8,26.11.6,45.1-11.7,58.18-33.71,2.96-4.98,5.04-10.47,7.58-15.69,1.74-3.56,3.35-7.24,6.92-9.47,3.32.78,4.39,3.21,4.77,5.89,1.13,8.05,2.28,16.12,3.03,24.21.45,4.92.47,9.93.14,14.86-.66,9.78-5.4,17.51-13.55,22.69-11.23,7.13-23.47,11.66-36.96,12.25-3.31.14-6.61.75-9.92.82-5.07.11-10.05-.82-14.22-3.8-7.38-5.29-15.27-5.25-23.28-2.44-16.1,5.64-31.53,12.57-44.1,24.62-1.73,1.66-3.64,3.62-7.35,1.61Z"/>
  <path class="cls-1" d="m483.59,409.3c3.19.66,4.07,2.46,4.2,4.54.96,15.22-.64,29.88-9.45,42.97-7.88,11.71-18.89,16.52-32.85,15.78-8.86-.47-17.61-1.44-25.89-4.54-4.91-1.84-9.45-4.73-14.03-7.37-1.69-.97-2.58-3-1.48-4.76.76-1.22,2.41-2.08,3.85-2.61,1.18-.43,2.63-.17,3.96-.17,6.15.01,12.3.08,18.45.05,12.08-.06,22.21-4.47,30.63-13.26,7.67-8.01,13.13-17.53,19.26-26.62,1.05-1.55,2.41-2.89,3.38-4.03Z"/>
  <path class="cls-1" d="m394.34,242.6c1.36-2.41,3.62-3.47,5.98-4.26,10.55-3.54,21.12-7.03,31.7-10.49,9.09-2.96,18.33-3.1,27.59-1.02,4.37.98,8.76,2.07,12.97,3.58,7.16,2.58,14.19,5.53,21.62,8.47-3.48,5.42-7.31,10.25-13.9,11.32-2.82.46-6.09.15-8.76-.85-4.49-1.68-8.95-3.76-12.91-6.44-9.31-6.3-19.34-7.52-30.04-5.38-8.95,1.79-17.89,3.64-26.4,7.14-2.94,1.21-5.83,1.21-7.85-2.08Z"/>
  <path class="cls-1" d="m441.47,189.41c-1.31-6.31.71-10.06,6.26-12.09,6.39-2.34,12.89-4.41,19.37-6.48,7.43-2.37,14.89-4.65,22.36-6.89,1.41-.42,2.92-.6,4.4-.69,2.01-.12,3.86.74,4.31,2.66.33,1.41-.31,3.11-.78,4.6-.23.71-1.07,1.24-1.67,1.82-8.14,7.85-17.64,13.55-28.09,17.72-1.23.49-2.57,1.11-3.82,1.04-7.43-.45-14.84-1.09-22.34-1.68Z"/>
  <path class="cls-1" d="m530.65,544.25c-5.77,2.06-11.43,1.9-17.04-.1-3.75-1.34-7.42-2.88-11.07-4.47-9.95-4.32-15.34-11.84-15.64-22.79-.33-12.19-5.69-19.7-17.29-24.08-2.64-.99-5.27-2-7.88-3.08-.38-.16-.58-.76-.89-1.18.9-1.95,2.58-1.47,3.86-1.03,5.65,1.94,11.37,3.74,16.8,6.18,7.67,3.44,10.54,10.2,11.06,18.15.16,2.48-.04,4.99.02,7.48.15,6.03,2.16,7.94,8.3,7.8,1.64-.04,3.28-.39,4.91-.67,8.7-1.44,16.1.91,22.06,7.51,2.93,3.24,3.35,4.58,2.79,10.25Z"/>
  <path class="cls-1" d="m209.96,467.09c2.78,1.64,2.92,3.6,2.91,5.65-.02,3.83-.03,7.66,0,11.49.01,1.28.18,2.56.33,4.56,2.05-1.1,3.64-1.87,5.16-2.78,4.86-2.9,9.66-5.89,14.53-8.76,4.52-2.67,9.51-3.91,14.68-4.38.99-.09,2.05.46,3,.69.29,2.79-1.5,3.32-3.05,3.58-3.2.54-5.37,2.42-7.35,4.77-8.09,9.59-18.98,13.68-30.95,15.42-5.45.79-7.28-.96-7.41-6.58-.09-3.66-.16-7.34.13-10.98.44-5.57,4.18-9.1,8.01-12.68Z"/>
  <path class="cls-1" d="m508.15,512.83c2.21-2.49,4.37-1.66,6.62-.79,7.49,2.9,15.27,4.6,23.28,4.89,12.42.46,24.08-2.26,34.69-8.93.56-.35,1.12-.72,1.71-1.02,3.19-1.64,4.13-1.22,5.88,2.94-8.78,11.34-20.68,16.17-34.92,16.47-13.65.29-32.86-6.47-37.27-13.56Z"/>
  <path class="cls-1" d="m345.63,321.17c-4.42-2.58-10.72.58-13.23-6.32,1.84-.59,3.18-1.25,4.57-1.43,8.27-1.05,29.61-.81,32.87.32,2.03,2.2,2.72,4.73,1.25,8.19-1.39.5-3.02,1.31-4.74,1.68-8.95,1.9-15.23,7.08-19.18,15.25-.71,1.46-1.52,2.88-2.4,4.54-3.82-1.55-5.94-4.01-6.85-7.39.11-3.54,2.76-4.47,5.12-5.67,5.1-2.59,5.55-4.28,2.59-9.15Z"/>
  <path class="cls-1" d="m672.32,420.01c3.04-2.68,6.01-1.35,9.04-.3,3.09,3.24,3.62,7.46,2.33,11.16-3.52,10.1-2.51,19.8.85,29.62.81,2.38,1.41,5.07,0,7.77-2.88-.46-3.77-2.71-4.8-4.72-3.61-7.01-5.15-14.67-6.75-22.28-.89-4.21-1.48-8.51-1.91-12.79-.29-2.92-.81-6,1.23-8.47Z"/>
  <path class="cls-1" d="m415.81,267.79c.74-1.19,1.21-2.47,2.11-3.32,6.68-6.37,14.07-11.62,23.18-13.9,4.38-1.1,8.52-.97,11.41,3.09-.34,2.95-2.44,4.21-4.27,5.55-7.75,5.65-16.78,8.58-25.66,11.77-2.69.97-4.84-.1-6.77-3.18Z"/>
</svg>